# xmcd
#
# Track frame offsets:
#  150
#  25137
#  38920
#  55336
#  73305
#  88927
#  103247
#  122659
#  126295
#  133472
#  145362
#  180453
#  196789
#  209652
#  228143
#  243743
#  262666
#  285209
#
# Disc length: 4016 seconds
#
# Revision: 0
# Processed by: cddbd v1.4PL0 Copyright (c) Steve Scherf et al.
# Submitted via: AltoMP3_Maker 3.0
#
DISCID=130fae12
DTITLE=Midlife Chrysler - First Cut
DYEAR=1900
DGENRE=
TTITLE0=Der Mann aus Chile
TTITLE1=Hurricane
TTITLE2=Blue Moon
TTITLE3=Mescalito
TTITLE4=Celtic Names
TTITLE5=Lone Bone Babe
TTITLE6=Girl From the North Country
TTITLE7=King of the World
TTITLE8=Love Prostitution
TTITLE9=Tune In One More Time
TTITLE10=Our Hearts are Stones
TTITLE11=Cruisin'
TTITLE12=Ist schon wieder Juli
TTITLE13=Starker Tobak
TTITLE14=Haufen in Berlin
TTITLE15=Zeit vergeht
TTITLE16=Ausgemaust
TTITLE17=Pelzig
EXTD=
EXTT0=
EXTT1=
EXTT2=
EXTT3=
EXTT4=
EXTT5=
EXTT6=
EXTT7=
EXTT8=
EXTT9=
EXTT10=
EXTT11=
EXTT12=
EXTT13=
EXTT14=
EXTT15=
EXTT16=
EXTT17=
PLAYORDER=
